<svg preserveAspectRatio="none" width="100%" height="100%" overflow="visible" style="display: block;" viewBox="0 0 20 16" fill="none" xmlns="http://www.w3.org/2000/svg">
<path id="arrow-left" d="M19.4979 7.74978C19.4979 8.16378 19.1619 8.49978 18.7479 8.49978H2.55895L8.27892 14.2198C8.57192 14.5128 8.57192 14.9878 8.27892 15.2808C8.13292 15.4268 7.94089 15.5008 7.74889 15.5008C7.55689 15.5008 7.36487 15.4278 7.21887 15.2808L0.218865 8.28079C0.149865 8.21179 0.095 8.12889 0.057 8.03689C-0.019 7.85389 -0.019 7.64689 0.057 7.46389C0.095 7.37189 0.149865 7.28875 0.218865 7.21975L7.21887 0.21975C7.51187 -0.07325 7.9869 -0.07325 8.2799 0.21975C8.5729 0.51275 8.5729 0.987785 8.2799 1.28079L2.55993 7.00076H18.7479C19.1619 6.99976 19.4979 7.33578 19.4979 7.74978Z" fill="var(--fill-0, white)"/>
</svg>
