<svg preserveAspectRatio="none" width="100%" height="100%" overflow="visible" style="display: block;" viewBox="0 0 15 10" fill="none" xmlns="http://www.w3.org/2000/svg">
<path id="Mobile Signal" d="M1.7002 6.5C1.97986 6.5 2.11967 6.50034 2.22656 6.55469C2.32064 6.60262 2.39738 6.67936 2.44531 6.77344C2.49966 6.88033 2.5 7.02014 2.5 7.2998V8.7002C2.5 8.97986 2.49966 9.11967 2.44531 9.22656C2.39738 9.32064 2.32064 9.39738 2.22656 9.44531C2.11967 9.49966 1.97986 9.5 1.7002 9.5H0.799805C0.520141 9.5 0.380335 9.49966 0.273438 9.44531C0.179356 9.39738 0.102624 9.32064 0.0546875 9.22656C0.000339178 9.11967 2.94452e-09 8.97986 0 8.7002V7.2998C2.94183e-09 7.02014 0.000339172 6.88033 0.0546875 6.77344C0.102624 6.67936 0.179356 6.60262 0.273438 6.55469C0.380335 6.50034 0.520141 6.5 0.799805 6.5H1.7002ZM5.7002 4.5C5.97986 4.5 6.11967 4.50034 6.22656 4.55469C6.32064 4.60262 6.39738 4.67936 6.44531 4.77344C6.49966 4.88033 6.5 5.02014 6.5 5.2998V8.7002C6.5 8.97986 6.49966 9.11967 6.44531 9.22656C6.39738 9.32064 6.32064 9.39738 6.22656 9.44531C6.11967 9.49966 5.97986 9.5 5.7002 9.5H4.7998C4.52014 9.5 4.38033 9.49966 4.27344 9.44531C4.17936 9.39738 4.10262 9.32064 4.05469 9.22656C4.00034 9.11967 4 8.97986 4 8.7002V5.2998C4 5.02014 4.00034 4.88033 4.05469 4.77344C4.10262 4.67936 4.17936 4.60262 4.27344 4.55469C4.38033 4.50034 4.52014 4.5 4.7998 4.5H5.7002ZM9.7002 2.5C9.97986 2.5 10.1197 2.50034 10.2266 2.55469C10.3206 2.60262 10.3974 2.67936 10.4453 2.77344C10.4997 2.88033 10.5 3.02014 10.5 3.2998V8.7002C10.5 8.97986 10.4997 9.11967 10.4453 9.22656C10.3974 9.32064 10.3206 9.39738 10.2266 9.44531C10.1197 9.49966 9.97986 9.5 9.7002 9.5H8.7998C8.52014 9.5 8.38033 9.49966 8.27344 9.44531C8.17936 9.39738 8.10262 9.32064 8.05469 9.22656C8.00034 9.11967 8 8.97986 8 8.7002V3.2998C8 3.02014 8.00034 2.88033 8.05469 2.77344C8.10262 2.67936 8.17936 2.60262 8.27344 2.55469C8.38033 2.50034 8.52014 2.5 8.7998 2.5H9.7002ZM13.7002 0C13.9799 2.94273e-09 14.1197 0.000339174 14.2266 0.0546875C14.3206 0.102624 14.3974 0.179356 14.4453 0.273438C14.4997 0.380335 14.5 0.520141 14.5 0.799805V8.7002C14.5 8.97986 14.4997 9.11967 14.4453 9.22656C14.3974 9.32064 14.3206 9.39738 14.2266 9.44531C14.1197 9.49966 13.9799 9.5 13.7002 9.5H12.7998C12.5201 9.5 12.3803 9.49966 12.2734 9.44531C12.1794 9.39738 12.1026 9.32064 12.0547 9.22656C12.0003 9.11967 12 8.97986 12 8.7002V0.799805C12 0.520141 12.0003 0.380335 12.0547 0.273438C12.1026 0.179356 12.1794 0.102624 12.2734 0.0546875C12.3803 0.000339174 12.5201 2.94273e-09 12.7998 0H13.7002Z" fill="var(--fill-0, white)"/>
</svg>
