<svg preserveAspectRatio="none" width="100%" height="100%" overflow="visible" style="display: block;" viewBox="0 0 26 33" fill="none" xmlns="http://www.w3.org/2000/svg">
<path id="lock" d="M20.8333 10.0899V7.91667C20.8333 3.55167 17.2817 0 12.9167 0C8.55167 0 5 3.55167 5 7.91667V10.0899C1.77 10.5183 0 12.66 0 16.25V26.25C0 30.28 2.22 32.5 6.25 32.5H19.5833C23.6133 32.5 25.8333 30.28 25.8333 26.25V16.25C25.8333 12.6617 24.0633 10.5199 20.8333 10.0899ZM12.9167 2.5C15.9033 2.5 18.3333 4.93 18.3333 7.91667V10H7.5V7.91667C7.5 4.93 9.93 2.5 12.9167 2.5ZM23.3333 26.25C23.3333 28.8783 22.2117 30 19.5833 30H6.25C3.62167 30 2.5 28.8783 2.5 26.25V16.25C2.5 13.6217 3.62167 12.5 6.25 12.5H19.5833C22.2117 12.5 23.3333 13.6217 23.3333 16.25V26.25ZM15.0334 19.5833C15.0334 20.27 14.68 20.8501 14.1667 21.2284V24.5833C14.1667 25.2733 13.6067 25.8333 12.9167 25.8333C12.2267 25.8333 11.6667 25.2733 11.6667 24.5833V21.1865C11.1867 20.8049 10.8582 20.2417 10.8582 19.5833C10.8582 18.4333 11.7834 17.5 12.9334 17.5H12.95C14.1 17.5 15.0334 18.4333 15.0334 19.5833Z" fill="var(--fill-0, #1C0335)"/>
</svg>
