<svg preserveAspectRatio="none" width="100%" height="100%" overflow="visible" style="display: block;" viewBox="0 0 8 20" fill="none" xmlns="http://www.w3.org/2000/svg">
<path id="Vector" d="M2.275 19.25V15.5H0.75C0.5375 15.5 0.359417 15.4281 0.21575 15.2843C0.0719168 15.1406 0 14.9625 0 14.75V7.65C0 6.81667 0.233333 6.16667 0.7 5.7C1.16667 5.23333 1.8125 5 2.6375 5C3.4625 5 4.09583 5.275 4.5375 5.825C4.97917 6.375 5.2 6.98333 5.2 7.65C6.06667 7.75 6.75 8.09583 7.25 8.6875C7.75 9.27917 8 10.025 8 10.925V14.75C8 14.9625 7.92817 15.1406 7.7845 15.2843C7.64067 15.4281 7.4625 15.5 7.25 15.5H4.125V19.25C4.125 19.4625 4.05317 19.6406 3.9095 19.7843C3.76567 19.9281 3.5875 20 3.375 20H3.025C2.8125 20 2.63442 19.9281 2.49075 19.7843C2.34692 19.6406 2.275 19.4625 2.275 19.25ZM2.652 3.65C2.15067 3.65 1.72083 3.4715 1.3625 3.1145C1.00417 2.7575 0.825 2.32833 0.825 1.827C0.825 1.32567 1.0035 0.895833 1.3605 0.5375C1.7175 0.179167 2.14667 0 2.648 0C3.14933 0 3.57917 0.1785 3.9375 0.5355C4.29583 0.8925 4.475 1.32167 4.475 1.823C4.475 2.32433 4.2965 2.75417 3.9395 3.1125C3.5825 3.47083 3.15333 3.65 2.652 3.65Z" fill="var(--fill-0, black)"/>
</svg>
