<svg preserveAspectRatio="none" width="100%" height="100%" overflow="visible" style="display: block;" viewBox="0 0 16 18" fill="none" xmlns="http://www.w3.org/2000/svg">
<path id="Vector" d="M1.5 16.125H5.25V10.625C5.25 10.4125 5.32192 10.2343 5.46575 10.0905C5.60942 9.94683 5.7875 9.875 6 9.875H10C10.2125 9.875 10.3907 9.94683 10.5345 10.0905C10.6782 10.2343 10.75 10.4125 10.75 10.625V16.125H14.5V6.375L8 1.5L1.5 6.375V16.125ZM0 16.125V6.375C0 6.1375 0.0531668 5.9125 0.1595 5.7C0.265667 5.4875 0.4125 5.3125 0.6 5.175L7.1 0.3C7.36133 0.1 7.66 0 7.996 0C8.332 0 8.63333 0.1 8.9 0.3L15.4 5.175C15.5875 5.3125 15.7344 5.4875 15.8408 5.7C15.9469 5.9125 16 6.1375 16 6.375V16.125C16 16.5375 15.8532 16.8906 15.5595 17.1843C15.2657 17.4781 14.9125 17.625 14.5 17.625H10C9.7875 17.625 9.60942 17.5531 9.46575 17.4093C9.32192 17.2656 9.25 17.0875 9.25 16.875V11.375H6.75V16.875C6.75 17.0875 6.67817 17.2656 6.5345 17.4093C6.39067 17.5531 6.2125 17.625 6 17.625H1.5C1.0875 17.625 0.734417 17.4781 0.44075 17.1843C0.146917 16.8906 0 16.5375 0 16.125Z" fill="var(--fill-0, black)"/>
</svg>
