<svg preserveAspectRatio="none" width="100%" height="100%" overflow="visible" style="display: block;" viewBox="0 0 21 20" fill="none" xmlns="http://www.w3.org/2000/svg">
<path id="Vector" d="M14.95 15.725V18.075C14.95 18.1917 14.9928 18.2875 15.0785 18.3625C15.1643 18.4375 15.2643 18.475 15.3785 18.475C15.4928 18.475 15.5875 18.4325 15.6625 18.3475C15.7375 18.2625 15.775 18.1633 15.775 18.05V15.725H18.125C18.2417 15.725 18.3375 15.6822 18.4125 15.5965C18.4875 15.5107 18.525 15.4107 18.525 15.2965C18.525 15.1822 18.4875 15.0875 18.4125 15.0125C18.3375 14.9375 18.2417 14.9 18.125 14.9H15.775V12.55C15.775 12.4333 15.7375 12.3375 15.6625 12.2625C15.5875 12.1875 15.4928 12.15 15.3785 12.15C15.2643 12.15 15.1643 12.1875 15.0785 12.2625C14.9928 12.3375 14.95 12.4333 14.95 12.55V14.9H12.6C12.4833 14.9 12.3875 14.9375 12.3125 15.0125C12.2375 15.0875 12.2 15.1822 12.2 15.2965C12.2 15.4107 12.2425 15.5107 12.3275 15.5965C12.4125 15.6822 12.5117 15.725 12.625 15.725H14.95ZM1.5 18C1.0875 18 0.734417 17.8531 0.44075 17.5593C0.146917 17.2656 0 16.9125 0 16.5V1.5C0 1.0875 0.146917 0.734333 0.44075 0.4405C0.734417 0.146833 1.0875 0 1.5 0H16.5C16.9125 0 17.2657 0.146833 17.5595 0.4405C17.8532 0.734333 18 1.0875 18 1.5V8.375C18 8.5875 17.9277 8.76558 17.783 8.90925C17.6385 9.05308 17.4593 9.125 17.2455 9.125C17.0318 9.125 16.8542 9.05308 16.7125 8.90925C16.5708 8.76558 16.5 8.5875 16.5 8.375V1.5H1.5V16.5H8.425C8.6375 16.5 8.81567 16.5723 8.9595 16.717C9.10317 16.8615 9.175 17.0407 9.175 17.2545C9.175 17.4682 9.10317 17.6458 8.9595 17.7875C8.81567 17.9292 8.6375 18 8.425 18H1.5ZM1.5 15.325V16.5V1.5V9.2V9.1V15.325ZM4 13.2545C4 13.4682 4.07192 13.6458 4.21575 13.7875C4.35942 13.9292 4.5375 14 4.75 14H8.525C8.7375 14 8.91567 13.9277 9.0595 13.783C9.20317 13.6385 9.275 13.4593 9.275 13.2455C9.275 13.0318 9.20317 12.8542 9.0595 12.7125C8.91567 12.5708 8.7375 12.5 8.525 12.5H4.75C4.5375 12.5 4.35942 12.5723 4.21575 12.717C4.07192 12.8615 4 13.0407 4 13.2545ZM4 9.0045C4 9.21817 4.07192 9.39583 4.21575 9.5375C4.35942 9.67917 4.5375 9.75 4.75 9.75H12.75C12.9625 9.75 13.1407 9.67767 13.2845 9.533C13.4282 9.3885 13.5 9.20933 13.5 8.9955C13.5 8.78183 13.4282 8.60417 13.2845 8.4625C13.1407 8.32083 12.9625 8.25 12.75 8.25H4.75C4.5375 8.25 4.35942 8.32233 4.21575 8.467C4.07192 8.6115 4 8.79067 4 9.0045ZM4 4.7545C4 4.96817 4.07192 5.14583 4.21575 5.2875C4.35942 5.42917 4.5375 5.5 4.75 5.5H13.25C13.4625 5.5 13.6407 5.42767 13.7845 5.283C13.9282 5.1385 14 4.95933 14 4.7455C14 4.53183 13.9282 4.35417 13.7845 4.2125C13.6407 4.07083 13.4625 4 13.25 4H4.75C4.5375 4 4.35942 4.07233 4.21575 4.217C4.07192 4.3615 4 4.54067 4 4.7545ZM15.3125 19.975C14.0208 19.975 12.9167 19.5125 12 18.5875C11.0833 17.6625 10.625 16.5667 10.625 15.3C10.625 13.9928 11.0832 12.8785 11.9997 11.957C12.9162 11.0357 14.0247 10.575 15.325 10.575C16.6083 10.575 17.7125 11.0357 18.6375 11.957C19.5625 12.8785 20.025 13.9928 20.025 15.3C20.025 16.5667 19.5625 17.6625 18.6375 18.5875C17.7125 19.5125 16.6042 19.975 15.3125 19.975Z" fill="var(--fill-0, black)"/>
</svg>
