<svg preserveAspectRatio="none" width="100%" height="100%" overflow="visible" style="display: block;" viewBox="0 0 20 20" fill="none" xmlns="http://www.w3.org/2000/svg">
<path id="calendar-empty" d="M15.75 1.5H14.5V0.75C14.5 0.336 14.164 0 13.75 0C13.336 0 13 0.336 13 0.75V1.5H6.5V0.75C6.5 0.336 6.164 0 5.75 0C5.336 0 5 0.336 5 0.75V1.5H3.75C1.332 1.5 0 2.832 0 5.25V15.75C0 18.168 1.332 19.5 3.75 19.5H15.75C18.168 19.5 19.5 18.168 19.5 15.75V5.25C19.5 2.832 18.168 1.5 15.75 1.5ZM18 15.75C18 17.327 17.327 18 15.75 18H3.75C2.173 18 1.5 17.327 1.5 15.75V5.25C1.5 3.673 2.173 3 3.75 3H5V3.75C5 4.164 5.336 4.5 5.75 4.5C6.164 4.5 6.5 4.164 6.5 3.75V3H13V3.75C13 4.164 13.336 4.5 13.75 4.5C14.164 4.5 14.5 4.164 14.5 3.75V3H15.75C17.327 3 18 3.673 18 5.25V15.75Z" fill="var(--fill-0, #2A2A2A)"/>
</svg>
