<svg preserveAspectRatio="none" width="100%" height="100%" overflow="visible" style="display: block;" viewBox="0 0 24 24" fill="none" xmlns="http://www.w3.org/2000/svg">
<g id="elderly_24dp_E3E3E3_FILL0_wght400_GRAD0_opsz24 1">
<path id="Vector" d="M8 23L6.4 21.8L9 18.325V13C9 12.4833 9.04167 11.9208 9.125 11.3125C9.20833 10.7042 9.33333 10.1417 9.5 9.625L8 10.45V14H6V9.3L10.4 6.8C10.8167 6.56667 11.1792 6.3875 11.4875 6.2625C11.7958 6.1375 12.0833 6.075 12.35 6.075C12.7667 6.075 13.1458 6.25417 13.4875 6.6125C13.8292 6.97083 14.225 7.53333 14.675 8.3C15.2083 9.2 15.6917 9.875 16.125 10.325C16.5583 10.775 17.025 11.1167 17.525 11.35C17.7083 11.2167 17.8667 11.125 18 11.075C18.1333 11.025 18.2917 11 18.475 11C18.8917 11 19.25 11.15 19.55 11.45C19.85 11.75 20 12.1 20 12.5V23H19V12.5C19 12.3667 18.95 12.25 18.85 12.15C18.75 12.05 18.6333 12 18.5 12C18.3667 12 18.25 12.05 18.15 12.15C18.05 12.25 18 12.3667 18 12.5V13.75H17V13.275C16.1 12.8917 15.4 12.4625 14.9 11.9875C14.4 11.5125 13.9583 10.875 13.575 10.075C13.3917 10.5417 13.2458 11.1125 13.1375 11.7875C13.0292 12.4625 12.9917 13.1 13.025 13.7L15 16.5V23H13V18L11.225 15.45L11 19L8 23ZM13.5 5.5C12.95 5.5 12.4792 5.30417 12.0875 4.9125C11.6958 4.52083 11.5 4.05 11.5 3.5C11.5 2.95 11.6958 2.47917 12.0875 2.0875C12.4792 1.69583 12.95 1.5 13.5 1.5C14.05 1.5 14.5208 1.69583 14.9125 2.0875C15.3042 2.47917 15.5 2.95 15.5 3.5C15.5 4.05 15.3042 4.52083 14.9125 4.9125C14.5208 5.30417 14.05 5.5 13.5 5.5Z" fill="var(--fill-0, #1C0335)"/>
</g>
</svg>
