<svg width="24" height="60" viewBox="0 0 24 60" fill="none" xmlns="http://www.w3.org/2000/svg">
<path d="M6.82501 57.75V46.5H2.25C1.612 46.5 1.07803 46.284 0.647034 45.853C0.216034 45.422 0 44.888 0 44.25V22.95C0 20.45 0.700037 18.5 2.10004 17.1C3.50004 15.7 5.43699 15 7.91199 15C10.387 15 12.287 15.825 13.612 17.475C14.937 19.125 15.6 20.95 15.6 22.95C18.2 23.25 20.25 24.288 21.75 26.063C23.25 27.838 24 30.075 24 32.775V44.25C24 44.888 23.784 45.422 23.353 45.853C22.922 46.284 22.387 46.5 21.75 46.5H12.375V57.75C12.375 58.388 12.159 58.922 11.728 59.353C11.297 59.784 10.762 60 10.125 60H9.07501C8.43701 60 7.90305 59.784 7.47205 59.353C7.04105 58.922 6.82501 58.388 6.82501 57.75ZM7.95599 10.95C6.45199 10.95 5.16204 10.415 4.08704 9.34399C3.01204 8.27299 2.47504 6.985 2.47504 5.481C2.47504 3.977 3.00999 2.68799 4.08099 1.61299C5.15199 0.537991 6.44003 0 7.94403 0C9.44803 0 10.737 0.535995 11.812 1.60699C12.887 2.67799 13.425 3.96499 13.425 5.46899C13.425 6.97299 12.889 8.263 11.818 9.338C10.747 10.413 9.45999 10.95 7.95599 10.95Z" fill="white"/>
</svg>
