<svg width="93" height="92" viewBox="0 0 93 92" fill="none" xmlns="http://www.w3.org/2000/svg">
<g filter="url(#filter0_d_42_132)">
<path d="M67.859 8.80615H24.3463C15.7637 8.80615 8.80615 15.7637 8.80615 24.3464V66.8231C8.80615 75.4057 15.7637 82.3633 24.3463 82.3633H67.859C76.4417 82.3633 83.3992 75.4057 83.3992 66.8231V24.3464C83.3992 15.7637 76.4417 8.80615 67.859 8.80615Z" fill="url(#paint0_linear_42_132)"/>
<path d="M43.227 61.0012V54.7512H40.686C40.332 54.7512 40.035 54.6312 39.795 54.3922C39.556 54.1522 39.436 53.8552 39.436 53.5012V41.6682C39.436 40.2792 39.825 39.1962 40.602 38.4182C41.38 37.6402 42.457 37.2512 43.832 37.2512C45.207 37.2512 46.262 37.7102 46.998 38.6262C47.734 39.5432 48.102 40.5572 48.102 41.6682C49.547 41.8352 50.686 42.4112 51.519 43.3972C52.352 44.3832 52.769 45.6262 52.769 47.1262V53.5012C52.769 53.8552 52.649 54.1522 52.41 54.3922C52.17 54.6312 51.873 54.7512 51.519 54.7512H46.311V61.0012C46.311 61.3552 46.191 61.6521 45.952 61.8922C45.712 62.1311 45.415 62.2512 45.061 62.2512H44.477C44.123 62.2512 43.826 62.1311 43.587 61.8922C43.347 61.6521 43.227 61.3552 43.227 61.0012ZM43.856 35.0012C43.02 35.0012 42.304 34.7042 41.707 34.1092C41.109 33.5142 40.811 32.7982 40.811 31.9632C40.811 31.1272 41.108 30.4112 41.703 29.8142C42.298 29.2162 43.014 28.9182 43.849 28.9182C44.685 28.9182 45.401 29.2152 45.998 29.8102C46.595 30.4052 46.894 31.1212 46.894 31.9562C46.894 32.7922 46.597 33.5082 46.002 34.1052C45.407 34.7032 44.691 35.0012 43.856 35.0012Z" fill="white"/>
</g>
<defs>
<filter id="filter0_d_42_132" x="1.23978e-05" y="1.23978e-05" width="92.2053" height="91.1693" filterUnits="userSpaceOnUse" color-interpolation-filters="sRGB">
<feFlood flood-opacity="0" result="BackgroundImageFix"/>
<feColorMatrix in="SourceAlpha" type="matrix" values="0 0 0 0 0 0 0 0 0 0 0 0 0 0 0 0 0 0 127 0" result="hardAlpha"/>
<feOffset/>
<feGaussianBlur stdDeviation="4.40307"/>
<feComposite in2="hardAlpha" operator="out"/>
<feColorMatrix type="matrix" values="0 0 0 0 0 0 0 0 0 0 0 0 0 0 0 0 0 0 0.05 0"/>
<feBlend mode="normal" in2="BackgroundImageFix" result="effect1_dropShadow_42_132"/>
<feBlend mode="normal" in="SourceGraphic" in2="effect1_dropShadow_42_132" result="shape"/>
</filter>
<linearGradient id="paint0_linear_42_132" x1="12.3852" y1="13.4112" x2="82.0591" y2="77.7441" gradientUnits="userSpaceOnUse">
<stop stop-color="#92C5FD"/>
<stop offset="1" stop-color="#3C8ADF"/>
</linearGradient>
</defs>
</svg>
