<svg preserveAspectRatio="none" width="100%" height="100%" overflow="visible" style="display: block;" viewBox="0 0 13 9" fill="none" xmlns="http://www.w3.org/2000/svg">
<path id="Wi-Fi" d="M6.4873 5.96875C7.3521 5.96875 8.12648 6.34542 8.64453 6.93848L6.52246 9L4.36035 6.90527C4.87799 6.33152 5.63891 5.96882 6.4873 5.96875ZM6.4873 2.98438C8.20108 2.98438 9.74453 3.69171 10.8232 4.82129L9.73438 5.87891C8.93539 5.01801 7.77645 4.47656 6.4873 4.47656C5.21354 4.47663 4.06738 5.00552 3.26953 5.84863L2.17969 4.79297C3.25699 3.68013 4.78815 2.98444 6.4873 2.98438ZM6.4873 0C9.05031 0 11.363 1.03959 13 2.70703L11.9121 3.76367C10.5541 2.3652 8.62571 1.49219 6.4873 1.49219C4.36276 1.49226 2.44631 2.3546 1.08984 3.7373L0 2.68164C1.63549 1.02901 3.93736 6.952e-05 6.4873 0Z" fill="var(--fill-0, white)"/>
</svg>
