<svg width="88" height="88" viewBox="0 0 88 88" fill="none" xmlns="http://www.w3.org/2000/svg">
<g filter="url(#filter0_d_42_124)">
<path d="M63.266 8.80615H24.3463C15.7637 8.80615 8.80615 15.7637 8.80615 24.3464V63.266C8.80615 71.8486 15.7637 78.8062 24.3463 78.8062H63.266C71.8486 78.8062 78.8062 71.8486 78.8062 63.266V24.3464C78.8062 15.7637 71.8486 8.80615 63.266 8.80615Z" fill="url(#paint0_linear_42_124)"/>
<path d="M30.4728 60.4731C30.0006 60.4731 29.6048 60.3131 29.2853 59.9941C28.9659 59.6751 28.8062 59.2791 28.8062 58.8071V50.4731C28.8062 49.5571 29.1325 48.7721 29.7853 48.1191C30.4381 47.4661 31.2228 47.1401 32.1395 47.1401V40.4731C32.1395 39.5571 32.4659 38.7721 33.1187 38.1191C33.7714 37.4661 34.5562 37.1401 35.4728 37.1401H42.1395V34.7231C41.6395 34.3901 41.2367 33.9871 40.9312 33.5151C40.6256 33.0431 40.4728 32.4731 40.4728 31.8071C40.4728 31.3901 40.5562 30.9801 40.7228 30.5771C40.8895 30.1751 41.1395 29.8071 41.4728 29.4731L43.8062 27.1401L46.1395 29.4731C46.4728 29.8071 46.7228 30.1751 46.8895 30.5771C47.0562 30.9801 47.1395 31.3901 47.1395 31.8071C47.1395 32.4731 46.9867 33.0431 46.6812 33.5151C46.3756 33.9871 45.9728 34.3901 45.4728 34.7231V37.1401H52.1395C53.0562 37.1401 53.8409 37.4661 54.4937 38.1191C55.1464 38.7721 55.4728 39.5571 55.4728 40.4731V47.1401C56.3895 47.1401 57.1742 47.4661 57.827 48.1191C58.4798 48.7721 58.8062 49.5571 58.8062 50.4731V58.8071C58.8062 59.2791 58.6464 59.6751 58.327 59.9941C58.0075 60.3131 57.6117 60.4731 57.1395 60.4731H30.4728ZM35.4728 47.1401H52.1395V40.4731H35.4728V47.1401ZM32.1395 57.1401H55.4728V50.4731H32.1395V57.1401Z" fill="white"/>
</g>
<defs>
<filter id="filter0_d_42_124" x="1.23978e-05" y="1.23978e-05" width="87.6123" height="87.6123" filterUnits="userSpaceOnUse" color-interpolation-filters="sRGB">
<feFlood flood-opacity="0" result="BackgroundImageFix"/>
<feColorMatrix in="SourceAlpha" type="matrix" values="0 0 0 0 0 0 0 0 0 0 0 0 0 0 0 0 0 0 127 0" result="hardAlpha"/>
<feOffset/>
<feGaussianBlur stdDeviation="4.40307"/>
<feComposite in2="hardAlpha" operator="out"/>
<feColorMatrix type="matrix" values="0 0 0 0 0 0 0 0 0 0 0 0 0 0 0 0 0 0 0.05 0"/>
<feBlend mode="normal" in2="BackgroundImageFix" result="effect1_dropShadow_42_124"/>
<feBlend mode="normal" in="SourceGraphic" in2="effect1_dropShadow_42_124" result="shape"/>
</filter>
<linearGradient id="paint0_linear_42_124" x1="8.80615" y1="72.8912" x2="79.5906" y2="15.6932" gradientUnits="userSpaceOnUse">
<stop stop-color="#F9C711"/>
<stop offset="1" stop-color="#F5A60D"/>
</linearGradient>
</defs>
</svg>
