<svg width="54" height="60" viewBox="0 0 54 60" fill="none" xmlns="http://www.w3.org/2000/svg">
<path d="M3 60C2.15 60 1.44 59.713 0.869995 59.138C0.289995 58.563 0 57.85 0 57V42C0 40.35 0.59002 38.938 1.77002 37.763C2.94002 36.588 4.35 36 6 36V24C6 22.35 6.59002 20.938 7.77002 19.763C8.94002 18.588 10.35 18 12 18H24V13.65C23.1 13.05 22.38 12.325 21.83 11.475C21.28 10.625 21 9.59999 21 8.39999C21 7.64999 21.15 6.91299 21.45 6.18799C21.75 5.46299 22.1999 4.8 22.7999 4.2L27 0L31.2 4.2C31.8 4.8 32.2499 5.46299 32.5499 6.18799C32.8499 6.91299 33 7.64999 33 8.39999C33 9.59999 32.7299 10.625 32.1799 11.475C31.6299 12.325 30.9 13.05 30 13.65V18H42C43.65 18 45.07 18.588 46.24 19.763C47.42 20.938 48 22.35 48 24V36C49.65 36 51.07 36.588 52.24 37.763C53.42 38.938 54 40.35 54 42V57C54 57.85 53.72 58.563 53.14 59.138C52.57 59.713 51.85 60 51 60H3ZM12 36H42V24H12V36ZM6 54H48V42H6V54Z" fill="white"/>
</svg>
