<svg width="93" height="92" viewBox="0 0 93 92" fill="none" xmlns="http://www.w3.org/2000/svg">
<g filter="url(#filter0_d_42_210)">
<path d="M67.8591 8.80615H24.3463C15.7637 8.80615 8.80615 15.7637 8.80615 24.3464V66.8231C8.80615 75.4057 15.7637 82.3633 24.3463 82.3633H67.8591C76.4417 82.3633 83.3992 75.4057 83.3992 66.8231V24.3464C83.3992 15.7637 76.4417 8.80615 67.8591 8.80615Z" fill="url(#paint0_linear_42_210)"/>
<path d="M41.0601 48.1202V50.9332C41.8211 51.2652 42.6411 51.4392 43.4711 51.4452C44.3401 51.4522 45.2011 51.2772 45.9981 50.9312V48.7612C45.8131 48.6202 45.6361 48.4682 45.4691 48.3062C44.8421 48.5002 44.1891 48.6002 43.5321 48.6032C42.6851 48.6022 41.8451 48.4382 41.0601 48.1202Z" fill="white"/>
<path d="M52.8032 41.3351C52.2232 41.1331 51.5882 41.1651 51.0312 41.4241C50.7042 41.5721 50.4142 41.7911 50.1812 42.0661C49.9492 42.3401 49.7802 42.6621 49.6872 43.0091C49.6632 43.1131 49.6132 43.2101 49.5412 43.2891C49.4692 43.3691 49.3782 43.4281 49.2762 43.4621C49.1752 43.4961 49.0662 43.5041 48.9612 43.4841C48.8552 43.4631 48.7572 43.4171 48.6752 43.3481C48.3942 43.1201 48.0672 42.9571 47.7162 42.8681C47.3652 42.7791 47.0002 42.7671 46.6442 42.8331C46.2692 42.8861 45.9172 43.0411 45.6252 43.2821C45.3332 43.5231 45.1132 43.8391 44.9902 44.1971C44.9262 44.7451 44.9942 45.3001 45.1862 45.8161C45.3782 46.3331 45.6912 46.7971 46.0972 47.1701V47.1741C46.1752 47.2541 46.2452 47.3231 46.2982 47.3751C47.8522 48.9061 50.0162 48.9511 51.0032 48.8751C51.2942 48.6961 51.5752 48.4991 51.8412 48.2851C51.4612 47.6511 51.2002 46.9511 51.0732 46.2231C50.7382 44.3191 51.1212 42.8231 52.2072 41.7461C52.3832 41.5791 52.5842 41.4401 52.8032 41.3351Z" fill="white"/>
<path d="M37.0161 39.3412C37.0161 40.1992 37.1291 41.0542 37.3531 41.8832C37.8371 43.8322 39.0551 45.5182 40.7531 46.5892C41.8971 47.2672 43.2501 47.5002 44.5551 47.2452C44.2111 46.7822 43.9641 46.2562 43.8271 45.6962C43.6901 45.1372 43.6681 44.5562 43.7601 43.9872C43.9811 42.6982 45.2331 41.8662 46.3781 41.6122C47.1911 41.4402 48.0392 41.5542 48.7772 41.9362C49.0542 41.3982 49.4601 40.9382 49.9581 40.5962C50.0111 40.1802 50.0392 39.7602 50.0402 39.3412C50.0402 39.1532 50.0181 38.9662 50.0081 38.7782H45.9351C44.9301 38.7782 43.9532 38.4562 43.1442 37.8612L41.5131 36.6562L41.2092 37.0312C40.7702 37.5782 40.2131 38.0192 39.5801 38.3212C38.9471 38.6232 38.2552 38.7782 37.5532 38.7762H37.0491C37.0401 38.9652 37.0161 39.1572 37.0161 39.3412Z" fill="white"/>
<path d="M35.3291 38.7782C35.1551 38.7782 34.9831 38.8122 34.8231 38.8802C34.6621 38.9472 34.5171 39.0462 34.3961 39.1702C34.2091 39.3532 34.0811 39.5892 34.0281 39.8452C33.9761 40.1022 34.0021 40.3692 34.1021 40.6112C34.2021 40.8532 34.3731 41.0592 34.5911 41.2032C34.8101 41.3482 35.0671 41.4232 35.3291 41.4202H35.9651C35.8331 40.7342 35.7671 40.0372 35.7661 39.3392C35.7661 39.1512 35.7731 38.9642 35.7831 38.7762L35.3291 38.7782Z" fill="white"/>
<path d="M59.9632 48.4401C60.4282 48.0621 60.7913 47.5731 61.0193 47.0181C61.2473 46.4641 61.3322 45.8611 61.2662 45.2641C61.1432 44.9071 60.9233 44.5901 60.6313 44.3501C60.3393 44.1101 59.9872 43.9551 59.6122 43.9031C59.2572 43.8351 58.8922 43.8461 58.5422 43.9351C58.1912 44.0231 57.8652 44.1881 57.5852 44.4161C57.5042 44.4861 57.4062 44.5331 57.3012 44.5541C57.1962 44.5751 57.0873 44.5681 56.9853 44.5351C56.8833 44.5011 56.7922 44.4431 56.7192 44.3641C56.6472 44.2851 56.5963 44.1891 56.5713 44.0841C56.4773 43.7371 56.3082 43.4151 56.0762 43.1401C55.8442 42.8651 55.5542 42.6441 55.2282 42.4931C54.8932 42.3181 54.5162 42.2381 54.1392 42.2641C53.7612 42.2891 53.3992 42.4181 53.0902 42.6371C52.6902 43.0841 52.4082 43.6231 52.2702 44.2071C52.1322 44.7911 52.1422 45.4001 52.3012 45.9781C52.6702 48.1261 54.4012 49.4261 55.2512 49.9451C56.2432 50.0191 58.4013 49.9771 59.9383 48.4661L59.9632 48.4401Z" fill="white"/>
<path d="M36.548 54.7202C37.568 54.1982 38.712 53.9662 39.855 54.0492C40.998 54.1322 42.096 54.5282 43.03 55.1922L43.53 55.5492L44.03 55.1912C44.963 54.5272 46.061 54.1322 47.204 54.0492C48.347 53.9662 49.491 54.1982 50.511 54.7202L51.94 52.9372L46.698 51.9752C45.714 52.4462 44.637 52.6932 43.546 52.6982H43.456C42.377 52.6892 41.313 52.4442 40.339 51.9792L35.115 52.9382L36.548 54.7202Z" fill="white"/>
<path d="M56.1613 55.7601C56.1613 55.6981 56.1482 55.6311 56.1432 55.5671L53.3213 58.4711C53.2843 60.0441 53.0003 61.6011 52.4783 63.0851H56.1653L56.1613 55.7601Z" fill="white"/>
<path d="M37.1892 37.5281H37.5532C38.0682 37.5301 38.5762 37.4171 39.0402 37.1951C39.5052 36.9731 39.9132 36.6501 40.2352 36.2491L40.9152 35.4051C41.0162 35.2791 41.1622 35.1981 41.3222 35.1771C41.4822 35.1571 41.6442 35.1991 41.7732 35.2951L43.8862 36.8572C44.4792 37.2932 45.1962 37.5281 45.9332 37.5281H49.8662C49.3452 34.7731 47.6572 32.5162 45.4292 31.6762C44.2002 31.2142 42.8452 31.2142 41.6162 31.6762C39.3982 32.5162 37.7102 34.7721 37.1892 37.5281Z" fill="white"/>
<path d="M30.8962 55.7601V63.0841H34.5843C34.0603 61.6011 33.7753 60.0441 33.7383 58.4711L30.9153 55.5641C30.9083 55.6291 30.8962 55.6931 30.8962 55.7601Z" fill="white"/>
<path d="M53.0442 40.0971C53.0392 39.7821 52.9152 39.4811 52.6972 39.2541C52.5562 39.1041 52.3872 38.9851 52.1992 38.9031C52.0112 38.8211 51.8082 38.7791 51.6022 38.7781H51.2742C51.2842 38.9661 51.2902 39.1531 51.2902 39.3411C51.2902 39.5751 51.2772 39.8131 51.2622 40.0491C51.8502 39.9121 52.4642 39.9281 53.0442 40.0971Z" fill="white"/>
<path d="M32.9152 53.3412C32.3132 53.4532 31.7752 53.7862 31.4072 54.2752L34.8132 57.7792C34.9272 57.8982 34.9912 58.0562 34.9902 58.2212C35.0042 59.8872 35.3262 61.5362 35.9402 63.0842H51.1212C51.7352 61.5362 52.0592 59.8872 52.0742 58.2212C52.0722 58.0562 52.1362 57.8982 52.2512 57.7792L55.6552 54.2792C55.2862 53.7892 54.7482 53.4552 54.1452 53.3422L53.3402 53.1942L51.1592 55.9132C51.0662 56.0292 50.9352 56.1082 50.7902 56.1362C50.6442 56.1642 50.4942 56.1402 50.3652 56.0672L50.0482 55.8892C49.2252 55.4412 48.2932 55.2342 47.3582 55.2912C46.4232 55.3472 45.5222 55.6662 44.7602 56.2092L43.9362 56.7982C43.8262 56.8912 43.6882 56.9432 43.5442 56.9462C43.4002 56.9492 43.2602 56.9022 43.1462 56.8132L42.3022 56.2092C41.5382 55.6652 40.6362 55.3472 39.7002 55.2912C38.7642 55.2352 37.8302 55.4432 37.0072 55.8932L36.6952 56.0682C36.5662 56.1402 36.4152 56.1642 36.2702 56.1362C36.1252 56.1082 35.9942 56.0292 35.9012 55.9142L33.7202 53.1942L32.9152 53.3412Z" fill="white"/>
<path d="M42.0291 29.5801V30.2581C43.0161 30.0301 44.0421 30.0301 45.0291 30.2581V29.5801C45.0291 29.1821 44.8711 28.8011 44.5901 28.5191C44.3081 28.2381 43.9271 28.0801 43.5291 28.0801C43.1311 28.0801 42.7491 28.2381 42.4681 28.5191C42.1871 28.8011 42.0291 29.1821 42.0291 29.5801Z" fill="white"/>
</g>
<defs>
<filter id="filter0_d_42_210" x="1.23978e-05" y="1.23978e-05" width="92.2053" height="91.1693" filterUnits="userSpaceOnUse" color-interpolation-filters="sRGB">
<feFlood flood-opacity="0" result="BackgroundImageFix"/>
<feColorMatrix in="SourceAlpha" type="matrix" values="0 0 0 0 0 0 0 0 0 0 0 0 0 0 0 0 0 0 127 0" result="hardAlpha"/>
<feOffset/>
<feGaussianBlur stdDeviation="4.40307"/>
<feComposite in2="hardAlpha" operator="out"/>
<feColorMatrix type="matrix" values="0 0 0 0 0 0 0 0 0 0 0 0 0 0 0 0 0 0 0.05 0"/>
<feBlend mode="normal" in2="BackgroundImageFix" result="effect1_dropShadow_42_210"/>
<feBlend mode="normal" in="SourceGraphic" in2="effect1_dropShadow_42_210" result="shape"/>
</filter>
<linearGradient id="paint0_linear_42_210" x1="15.0411" y1="11.2852" x2="78.6272" y2="82.8501" gradientUnits="userSpaceOnUse">
<stop stop-color="#E499BA"/>
<stop offset="1" stop-color="#FF59A2"/>
</linearGradient>
</defs>
</svg>
