<svg width="56" height="62" viewBox="0 0 56 62" fill="none" xmlns="http://www.w3.org/2000/svg">
<path d="M4.875 27.875V39.375C4.875 48.862 4.87499 53.606 7.82199 56.553C10.769 59.5 15.512 59.5 25 59.5H30.75C40.237 59.5 44.98 59.5 47.927 56.553C50.875 53.606 50.875 48.862 50.875 39.375V27.875" stroke="white" stroke-width="4" stroke-linecap="round" stroke-linejoin="round"/>
<path d="M2 22.125C2 19.975 2 18.901 2.577 18.1C2.956 17.576 3.50001 17.14 4.15601 16.837C5.15701 16.375 6.50001 16.375 9.18701 16.375H46.562C49.249 16.375 50.593 16.375 51.593 16.837C52.249 17.14 52.793 17.576 53.172 18.1C53.75 18.901 53.75 19.975 53.75 22.125C53.75 24.275 53.75 25.35 53.172 26.15C52.793 26.675 52.249 27.11 51.593 27.413C50.593 27.875 49.249 27.875 46.562 27.875H9.18701C6.50001 27.875 5.15701 27.875 4.15601 27.413C3.50001 27.11 2.956 26.675 2.577 26.15C2 25.35 2 24.275 2 22.125Z" stroke="white" stroke-width="4" stroke-linejoin="round"/>
<path d="M10.625 7.13403C10.625 4.29903 12.923 2 15.759 2H16.785C22.91 2 27.875 6.96503 27.875 13.09V16.375H19.866C14.762 16.375 10.625 12.238 10.625 7.13403Z" stroke="white" stroke-width="4" stroke-linejoin="round"/>
<path d="M45.125 7.13403C45.125 4.29903 42.826 2 39.991 2H38.964C32.839 2 27.875 6.96503 27.875 13.09V16.375H35.884C40.987 16.375 45.125 12.238 45.125 7.13403Z" stroke="white" stroke-width="4" stroke-linejoin="round"/>
<path d="M27.875 27.875V59.5" stroke="white" stroke-width="4" stroke-linecap="round" stroke-linejoin="round"/>
</svg>
