<svg preserveAspectRatio="none" width="100%" height="100%" overflow="visible" style="display: block;" viewBox="0 0 34 34" fill="none" xmlns="http://www.w3.org/2000/svg">
<path id="Vector" d="M5.91667 26.0417C7.66667 24.8194 9.40278 23.8819 11.125 23.2292C12.8472 22.5764 14.6944 22.25 16.6667 22.25C18.6389 22.25 20.4931 22.5764 22.2292 23.2292C23.9653 23.8819 25.7083 24.8194 27.4583 26.0417C28.6806 24.5417 29.5486 23.0278 30.0625 21.5C30.5764 19.9722 30.8333 18.3611 30.8333 16.6667C30.8333 12.6389 29.4792 9.27083 26.7708 6.5625C24.0625 3.85417 20.6944 2.5 16.6667 2.5C12.6389 2.5 9.27083 3.85417 6.5625 6.5625C3.85417 9.27083 2.5 12.6389 2.5 16.6667C2.5 18.3611 2.76389 19.9722 3.29167 21.5C3.81944 23.0278 4.69444 24.5417 5.91667 26.0417ZM16.6588 17.9167C15.0529 17.9167 13.7014 17.3654 12.6042 16.2629C11.5069 15.1607 10.9583 13.8065 10.9583 12.2004C10.9583 10.5946 11.5096 9.24306 12.6121 8.14583C13.7143 7.04861 15.0685 6.5 16.6746 6.5C18.2804 6.5 19.6319 7.05125 20.7292 8.15375C21.8264 9.25597 22.375 10.6101 22.375 12.2163C22.375 13.8221 21.8238 15.1736 20.7213 16.2708C19.619 17.3681 18.2649 17.9167 16.6588 17.9167ZM16.6863 33.3333C14.3954 33.3333 12.2361 32.8958 10.2083 32.0208C8.18056 31.1458 6.40972 29.9514 4.89583 28.4375C3.38194 26.9236 2.1875 25.156 1.3125 23.1346C0.4375 21.1135 0 18.9538 0 16.6554C0 14.3574 0.4375 12.2014 1.3125 10.1875C2.1875 8.17361 3.38194 6.40972 4.89583 4.89583C6.40972 3.38194 8.17736 2.1875 10.1988 1.3125C12.2199 0.4375 14.3796 0 16.6779 0C18.976 0 21.1319 0.4375 23.1458 1.3125C25.1597 2.1875 26.9236 3.38194 28.4375 4.89583C29.9514 6.40972 31.1458 8.17403 32.0208 10.1888C32.8958 12.2035 33.3333 14.3563 33.3333 16.6471C33.3333 18.9379 32.8958 21.0972 32.0208 23.125C31.1458 25.1528 29.9514 26.9236 28.4375 28.4375C26.9236 29.9514 25.1593 31.1458 23.1446 32.0208C21.1299 32.8958 18.9771 33.3333 16.6863 33.3333ZM16.6667 30.8333C18.1944 30.8333 19.6875 30.6111 21.1458 30.1667C22.6042 29.7222 24.0417 28.9444 25.4583 27.8333C24.0417 26.8333 22.5972 26.0694 21.125 25.5417C19.6528 25.0139 18.1667 24.75 16.6667 24.75C15.1667 24.75 13.6806 25.0139 12.2083 25.5417C10.7361 26.0694 9.29167 26.8333 7.875 27.8333C9.29167 28.9444 10.7292 29.7222 12.1875 30.1667C13.6458 30.6111 15.1389 30.8333 16.6667 30.8333ZM16.6667 15.4167C17.6111 15.4167 18.3819 15.1181 18.9792 14.5208C19.5764 13.9236 19.875 13.1528 19.875 12.2083C19.875 11.2639 19.5764 10.4931 18.9792 9.89583C18.3819 9.29861 17.6111 9 16.6667 9C15.7222 9 14.9514 9.29861 14.3542 9.89583C13.7569 10.4931 13.4583 11.2639 13.4583 12.2083C13.4583 13.1528 13.7569 13.9236 14.3542 14.5208C14.9514 15.1181 15.7222 15.4167 16.6667 15.4167Z" fill="var(--fill-0, white)"/>
</svg>
