<svg preserveAspectRatio="none" width="100%" height="100%" overflow="visible" style="display: block;" viewBox="0 0 20 20" fill="none" xmlns="http://www.w3.org/2000/svg">
<path id="Vector" d="M10.0795 15C10.2932 15 10.4708 14.9281 10.6125 14.7843C10.7542 14.6406 10.825 14.4625 10.825 14.25V9.75C10.825 9.5375 10.7527 9.35933 10.608 9.2155C10.4635 9.07183 10.2843 9 10.0705 9C9.85683 9 9.67917 9.07183 9.5375 9.2155C9.39583 9.35933 9.325 9.5375 9.325 9.75V14.25C9.325 14.4625 9.39733 14.6406 9.542 14.7843C9.6865 14.9281 9.86567 15 10.0795 15ZM9.9995 7.15C10.2332 7.15 10.4292 7.07333 10.5875 6.92C10.7458 6.76667 10.825 6.57667 10.825 6.35C10.825 6.10917 10.746 5.90733 10.588 5.7445C10.43 5.5815 10.2342 5.5 10.0005 5.5C9.76683 5.5 9.57083 5.5815 9.4125 5.7445C9.25417 5.90733 9.175 6.10917 9.175 6.35C9.175 6.57667 9.254 6.76667 9.412 6.92C9.57 7.07333 9.76583 7.15 9.9995 7.15ZM10.0067 20C8.62775 20 7.33192 19.7375 6.11925 19.2125C4.90642 18.6875 3.84583 17.9708 2.9375 17.0625C2.02917 16.1542 1.3125 15.093 0.7875 13.879C0.2625 12.665 0 11.3678 0 9.9875C0 8.60717 0.2625 7.31 0.7875 6.096C1.3125 4.882 2.02917 3.825 2.9375 2.925C3.84583 2.025 4.907 1.3125 6.121 0.7875C7.335 0.2625 8.63217 0 10.0125 0C11.3928 0 12.69 0.2625 13.904 0.7875C15.118 1.3125 16.175 2.025 17.075 2.925C17.975 3.825 18.6875 4.88333 19.2125 6.1C19.7375 7.31667 20 8.61442 20 9.99325C20 11.3723 19.7375 12.6681 19.2125 13.8807C18.6875 15.0936 17.975 16.1527 17.075 17.058C16.175 17.9632 15.1167 18.6798 13.9 19.208C12.6833 19.736 11.3856 20 10.0067 20ZM10.0125 18.5C12.3708 18.5 14.375 17.6708 16.025 16.0125C17.675 14.3542 18.5 12.3458 18.5 9.9875C18.5 7.62917 17.6766 5.625 16.0298 3.975C14.3829 2.325 12.373 1.5 10 1.5C7.65 1.5 5.64583 2.32342 3.9875 3.97025C2.32917 5.61708 1.5 7.627 1.5 10C1.5 12.35 2.32917 14.3542 3.9875 16.0125C5.64583 17.6708 7.65417 18.5 10.0125 18.5Z" fill="var(--fill-0, #3B0076)"/>
</svg>
