<svg preserveAspectRatio="none" width="100%" height="100%" overflow="visible" style="display: block;" viewBox="0 0 19 20" fill="none" xmlns="http://www.w3.org/2000/svg">
<path id="calendar-empty" d="M15.0937 1.5H13.8958V0.75C13.8958 0.336 13.5738 0 13.1771 0C12.7803 0 12.4583 0.336 12.4583 0.75V1.5H6.22917V0.75C6.22917 0.336 5.90717 0 5.51042 0C5.11367 0 4.79167 0.336 4.79167 0.75V1.5H3.59375C1.2765 1.5 0 2.832 0 5.25V15.75C0 18.168 1.2765 19.5 3.59375 19.5H15.0937C17.411 19.5 18.6875 18.168 18.6875 15.75V5.25C18.6875 2.832 17.411 1.5 15.0937 1.5ZM17.25 15.75C17.25 17.327 16.605 18 15.0937 18H3.59375C2.08246 18 1.4375 17.327 1.4375 15.75V5.25C1.4375 3.673 2.08246 3 3.59375 3H4.79167V3.75C4.79167 4.164 5.11367 4.5 5.51042 4.5C5.90717 4.5 6.22917 4.164 6.22917 3.75V3H12.4583V3.75C12.4583 4.164 12.7803 4.5 13.1771 4.5C13.5738 4.5 13.8958 4.164 13.8958 3.75V3H15.0937C16.605 3 17.25 3.673 17.25 5.25V15.75Z" fill="var(--fill-0, #AEAEB2)"/>
</svg>
