<svg preserveAspectRatio="none" width="100%" height="100%" overflow="visible" style="display: block;" viewBox="0 0 14 14" fill="none" xmlns="http://www.w3.org/2000/svg">
<path id="icon" d="M4.86667 13.3333L4.6 11.2C4.45556 11.1444 4.31944 11.0778 4.19167 11C4.06389 10.9222 3.93889 10.8389 3.81667 10.75L1.83333 11.5833L0 8.41667L1.71667 7.11667C1.70556 7.03889 1.7 6.96389 1.7 6.89167V6.44167C1.7 6.36944 1.70556 6.29444 1.71667 6.21667L0 4.91667L1.83333 1.75L3.81667 2.58333C3.93889 2.49444 4.06667 2.41111 4.2 2.33333C4.33333 2.25556 4.46667 2.18889 4.6 2.13333L4.86667 0H8.53333L8.8 2.13333C8.94444 2.18889 9.08056 2.25556 9.20833 2.33333C9.33611 2.41111 9.46111 2.49444 9.58333 2.58333L11.5667 1.75L13.4 4.91667L11.6833 6.21667C11.6944 6.29444 11.7 6.36944 11.7 6.44167V6.89167C11.7 6.96389 11.6889 7.03889 11.6667 7.11667L13.3833 8.41667L11.55 11.5833L9.58333 10.75C9.46111 10.8389 9.33333 10.9222 9.2 11C9.06667 11.0778 8.93333 11.1444 8.8 11.2L8.53333 13.3333H4.86667ZM6.73333 9C7.37778 9 7.92778 8.77222 8.38333 8.31667C8.83889 7.86111 9.06667 7.31111 9.06667 6.66667C9.06667 6.02222 8.83889 5.47222 8.38333 5.01667C7.92778 4.56111 7.37778 4.33333 6.73333 4.33333C6.07778 4.33333 5.525 4.56111 5.075 5.01667C4.625 5.47222 4.4 6.02222 4.4 6.66667C4.4 7.31111 4.625 7.86111 5.075 8.31667C5.525 8.77222 6.07778 9 6.73333 9Z" fill="var(--fill-0, #007AFF)"/>
</svg>
