<svg width="14" height="14" viewBox="0 0 14 14" fill="none" xmlns="http://www.w3.org/2000/svg">
<path d="M10.4837 0.521865L3.63273 7.37287C3.37107 7.63313 3.16362 7.9427 3.02241 8.28367C2.8812 8.62464 2.80903 8.99023 2.81007 9.35928V10.114C2.81007 10.263 2.86927 10.4059 2.97465 10.5113C3.08004 10.6167 3.22296 10.6759 3.372 10.6759H4.12666C4.49572 10.6769 4.86131 10.6047 5.20228 10.4635C5.54325 10.3223 5.85282 10.1149 6.11307 9.85322L12.9641 3.00221C13.2925 2.67302 13.4769 2.22702 13.4769 1.76204C13.4769 1.29706 13.2925 0.851058 12.9641 0.521865C12.6301 0.202631 12.1859 0.0244751 11.7239 0.0244751C11.2619 0.0244751 10.8177 0.202631 10.4837 0.521865ZM12.1695 2.20764L5.31851 9.05865C5.00165 9.37358 4.5734 9.55085 4.12666 9.55202H3.93392V9.35928C3.93509 8.91255 4.11237 8.48429 4.42729 8.16744L11.2783 1.31643C11.3983 1.20177 11.5579 1.13779 11.7239 1.13779C11.8899 1.13779 12.0495 1.20177 12.1695 1.31643C12.2875 1.43472 12.3537 1.59497 12.3537 1.76204C12.3537 1.9291 12.2875 2.08935 12.1695 2.20764Z" fill="#1C1C1C"/>
<path d="M12.9243 5.04554C12.7753 5.04554 12.6324 5.10474 12.527 5.21012C12.4216 5.31551 12.3624 5.45843 12.3624 5.60747V8.4289H10.1147C9.66758 8.4289 9.2388 8.60651 8.92265 8.92265C8.60651 9.2388 8.4289 9.66758 8.4289 10.1147V12.3624H2.80963C2.36254 12.3624 1.93375 12.1848 1.61761 11.8686C1.30146 11.5525 1.12385 11.1237 1.12385 10.6766V2.80963C1.12385 2.36254 1.30146 1.93375 1.61761 1.61761C1.93375 1.30146 2.36254 1.12385 2.80963 1.12385H7.89057C8.03961 1.12385 8.18253 1.06465 8.28792 0.959269C8.3933 0.853887 8.4525 0.710959 8.4525 0.561927C8.4525 0.412894 8.3933 0.269966 8.28792 0.164585C8.18253 0.0592028 8.03961 0 7.89057 0L2.80963 0C2.06475 0.000892259 1.35062 0.297193 0.823908 0.823908C0.297193 1.35062 0.00089226 2.06475 0 2.80963L0 10.6766C0.00089226 11.4215 0.297193 12.1356 0.823908 12.6623C1.35062 13.189 2.06475 13.4853 2.80963 13.4862H9.18357C9.55271 13.4873 9.91839 13.4151 10.2594 13.2739C10.6005 13.1327 10.9102 12.9253 11.1705 12.6636L12.663 11.17C12.9247 10.9097 13.1322 10.6002 13.2736 10.2592C13.4149 9.91825 13.4871 9.55265 13.4862 9.18357V5.60747C13.4862 5.45843 13.427 5.31551 13.3217 5.21012C13.2163 5.10474 13.0733 5.04554 12.9243 5.04554ZM10.376 11.869C10.1501 12.0943 9.86444 12.2503 9.55275 12.3186V10.1147C9.55275 9.96565 9.61196 9.82272 9.71734 9.71734C9.82272 9.61195 9.96565 9.55275 10.1147 9.55275H12.3202C12.2507 9.86379 12.0949 10.1489 11.8707 10.3754L10.376 11.869Z" fill="#1C1C1C"/>
</svg>
