<svg width="24" height="25" viewBox="0 0 24 25" fill="none" xmlns="http://www.w3.org/2000/svg">
<path d="M22 12.6016C22 7.07872 17.5228 2.60156 12 2.60156C6.47715 2.60156 2 7.07872 2 12.6016C2 18.1244 6.47715 22.6016 12 22.6016C17.5228 22.6016 22 18.1244 22 12.6016Z" stroke="#9BADB4" stroke-width="1.5"/>
<path d="M20 6.30055C19.0653 6.36792 17.8681 6.7298 17.0379 7.80434C15.5385 9.74517 14.039 9.90712 13.0394 9.26018C11.5399 8.28976 12.8 6.71793 11.0401 5.86372C9.89313 5.30698 9.73321 3.79202 10.3716 2.60156" stroke="#9BADB4" stroke-width="1.5" stroke-linejoin="round"/>
<path d="M2 11.6016C2.7625 12.2637 3.83046 12.8698 5.08874 12.8698C7.68843 12.8698 8.20837 13.3665 8.20837 15.3534C8.20837 17.3402 8.20837 17.3402 8.72831 18.8304C9.06651 19.7997 9.18472 20.769 8.5106 21.6016" stroke="#9BADB4" stroke-width="1.5" stroke-linejoin="round"/>
<path d="M22 14.0539C21.1129 13.5426 20 13.3323 18.8734 14.142C16.7177 15.6914 15.2314 14.4076 14.5619 15.6905C13.5765 17.5791 17.0957 18.1727 14 22.6016" stroke="#9BADB4" stroke-width="1.5" stroke-linejoin="round"/>
</svg>
