<svg width="93" height="92" viewBox="0 0 93 92" fill="none" xmlns="http://www.w3.org/2000/svg">
<g filter="url(#filter0_d_42_211)">
<path d="M67.859 8.80615H24.3463C15.7637 8.80615 8.80615 15.7637 8.80615 24.3464V66.8231C8.80615 75.4057 15.7637 82.3633 24.3463 82.3633H67.859C76.4416 82.3633 83.3993 75.4057 83.3993 66.8231V24.3464C83.3993 15.7637 76.4416 8.80615 67.859 8.80615Z" fill="url(#paint0_linear_42_211)"/>
<path d="M46.1062 60.5842L34.4362 54.2512V44.2512L27.7661 40.5842L46.1062 30.5842L64.4362 40.5842V53.9182H61.1062V42.4182L57.7661 44.2512V54.2512L46.1062 60.5842ZM46.1062 46.7512L57.5161 40.5842L46.1062 34.4182L34.6862 40.5842L46.1062 46.7512ZM46.1062 56.7932L54.4362 52.2932V46.0012L46.1062 50.5842L37.7661 46.0012V52.2932L46.1062 56.7932Z" fill="white"/>
</g>
<defs>
<filter id="filter0_d_42_211" x="1.23978e-05" y="1.23978e-05" width="92.2053" height="91.1693" filterUnits="userSpaceOnUse" color-interpolation-filters="sRGB">
<feFlood flood-opacity="0" result="BackgroundImageFix"/>
<feColorMatrix in="SourceAlpha" type="matrix" values="0 0 0 0 0 0 0 0 0 0 0 0 0 0 0 0 0 0 127 0" result="hardAlpha"/>
<feOffset/>
<feGaussianBlur stdDeviation="4.40307"/>
<feComposite in2="hardAlpha" operator="out"/>
<feColorMatrix type="matrix" values="0 0 0 0 0 0 0 0 0 0 0 0 0 0 0 0 0 0 0.05 0"/>
<feBlend mode="normal" in2="BackgroundImageFix" result="effect1_dropShadow_42_211"/>
<feBlend mode="normal" in="SourceGraphic" in2="effect1_dropShadow_42_211" result="shape"/>
</filter>
<linearGradient id="paint0_linear_42_211" x1="8.80615" y1="76.1472" x2="83.3962" y2="15.0221" gradientUnits="userSpaceOnUse">
<stop stop-color="#92C64A"/>
<stop offset="1" stop-color="#A0DF46"/>
</linearGradient>
</defs>
</svg>
