<svg width="24" height="25" viewBox="0 0 24 25" fill="none" xmlns="http://www.w3.org/2000/svg">
<path d="M5.5 20.1025H9.25V14.6025C9.25 14.39 9.32192 14.2119 9.46575 14.068C9.60942 13.9244 9.7875 13.8525 10 13.8525H14C14.2125 13.8525 14.3907 13.9244 14.5345 14.068C14.6782 14.2119 14.75 14.39 14.75 14.6025V20.1025H18.5V10.3525L12 5.47754L5.5 10.3525V20.1025ZM4 20.1025V10.3525C4 10.115 4.05317 9.89004 4.1595 9.67754C4.26567 9.46504 4.4125 9.29004 4.6 9.15254L11.1 4.27754C11.3613 4.07754 11.66 3.97754 11.996 3.97754C12.332 3.97754 12.6333 4.07754 12.9 4.27754L19.4 9.15254C19.5875 9.29004 19.7344 9.46504 19.8408 9.67754C19.9469 9.89004 20 10.115 20 10.3525V20.1025C20 20.515 19.8532 20.8681 19.5595 21.1618C19.2657 21.4556 18.9125 21.6025 18.5 21.6025H14C13.7875 21.6025 13.6094 21.5306 13.4658 21.3868C13.3219 21.2431 13.25 21.065 13.25 20.8525V15.3525H10.75V20.8525C10.75 21.065 10.6782 21.2431 10.5345 21.3868C10.3907 21.5306 10.2125 21.6025 10 21.6025H5.5C5.0875 21.6025 4.73442 21.4556 4.44075 21.1618C4.14692 20.8681 4 20.515 4 20.1025Z" fill="#330065"/>
</svg>
