<svg width="24" height="24" viewBox="0 0 24 24" fill="none" xmlns="http://www.w3.org/2000/svg">
<g clip-path="url(#clip0_3816_4276)">
<rect width="24" height="24" rx="12" fill="white"/>
<path d="M17 12.2385V14H13.957L11 11.043V7H11.9325C12.106 6.672 12.329 6.368 12.599 6.098C12.6335 6.0635 12.6715 6.033 12.707 6H7.5C6.673 6 6 6.673 6 7.5V18H18V11.2925C17.9665 11.3285 17.936 11.3665 17.901 11.4015L17 12.238V12.2385ZM7.5 7H10V10.95L7 12.5495V7.5C7 7.224 7.2245 7 7.5 7ZM7 13.6835L10.4085 11.8655L13.09 14.547L11.2505 17H7V13.6835ZM12.5 17L14 15H17V17H12.5ZM14.5 8.753C14.5 8.339 14.836 8.003 15.25 8.003C15.664 8.003 16 8.339 16 8.753C16 9.167 15.664 9.503 15.25 9.503C14.836 9.503 14.5 9.167 14.5 8.753ZM13.3245 10.713L15.25 12.499L17.1945 10.6945C17.714 10.1755 18 9.485 18 8.75C18 8.015 17.714 7.3245 17.1945 6.8055C16.6755 6.286 15.985 6 15.25 6C14.515 6 13.8245 6.286 13.3055 6.8055C12.786 7.3245 12.5 8.015 12.5 8.75C12.5 9.485 12.788 10.177 13.3245 10.713ZM14.0125 7.513C14.343 7.1825 14.782 7.0005 15.25 7.0005C15.718 7.0005 16.1565 7.1825 16.4875 7.513C16.8185 7.8435 17 8.2825 17 8.7505C17 9.2185 16.818 9.657 16.501 9.9745L15.25 11.135L14.018 9.993C13.684 9.659 13.5 9.218 13.5 8.7505C13.5 8.283 13.682 7.844 14.0125 7.513Z" fill="black"/>
</g>
<defs>
<clipPath id="clip0_3816_4276">
<rect width="24" height="24" rx="12" fill="white"/>
</clipPath>
</defs>
</svg>
