<svg width="24" height="24" viewBox="0 0 24 24" fill="none" xmlns="http://www.w3.org/2000/svg">
<g clip-path="url(#clip0_2514_15833)">
<path d="M9 7.5V18.8128C8.99993 18.9362 8.96943 19.0576 8.91121 19.1663C8.853 19.2751 8.76886 19.3678 8.66625 19.4363L7.635 20.1234C7.53497 20.1901 7.42037 20.2318 7.30087 20.2449C7.18137 20.2581 7.06046 20.2423 6.94833 20.1989C6.83621 20.1555 6.73616 20.0858 6.65661 19.9957C6.57706 19.9055 6.52035 19.7976 6.49125 19.6809L5.25 15" stroke="white" stroke-width="2" stroke-linecap="round" stroke-linejoin="round"/>
<path d="M20.25 18.7508C20.25 18.8937 20.2091 19.0335 20.1323 19.1539C20.0555 19.2744 19.946 19.3704 19.8165 19.4306C19.687 19.4909 19.543 19.5129 19.4014 19.4941C19.2598 19.4754 19.1265 19.4165 19.0172 19.3246C14.1047 15.2033 9 15.0008 9 15.0008H5.25C4.25544 15.0008 3.30161 14.6058 2.59835 13.9025C1.89509 13.1992 1.5 12.2454 1.5 11.2508C1.5 10.2563 1.89509 9.30245 2.59835 8.59919C3.30161 7.89593 4.25544 7.50084 5.25 7.50084H9C9 7.50084 14.1047 7.29834 19.0172 3.17803C19.1264 3.08613 19.2596 3.02732 19.4011 3.0085C19.5426 2.98968 19.6866 3.01164 19.816 3.07179C19.9455 3.13194 20.0551 3.22779 20.132 3.34808C20.2088 3.46836 20.2498 3.60809 20.25 3.75084V18.7508Z" stroke="white" stroke-width="2" stroke-linecap="round" stroke-linejoin="round"/>
</g>
<defs>
<clipPath id="clip0_2514_15833">
<rect width="24" height="24" fill="white" transform="matrix(-1 0 0 1 24 0)"/>
</clipPath>
</defs>
</svg>
