<svg width="66" height="54" viewBox="0 0 66 54" fill="none" xmlns="http://www.w3.org/2000/svg">
<path d="M33 0L66 24.75L62.4 29.55L57 25.5V54H9V25.5L3.60004 29.55L0 24.75L33 0ZM19.05 27.15C19.05 29.8 20.475 32.625 23.325 35.625C26.175 38.625 29.4 41.75 33 45C36.6 41.75 39.825 38.625 42.675 35.625C45.525 32.625 46.95 29.8 46.95 27.15C46.95 24.95 46.2 23.125 44.7 21.675C43.2 20.225 41.4 19.5 39.3 19.5C38 19.5 36.812 19.763 35.737 20.288C34.662 20.813 33.75 21.5 33 22.35C32.25 21.5 31.312 20.813 30.187 20.288C29.062 19.763 27.9 19.5 26.7 19.5C24.6 19.5 22.8 20.225 21.3 21.675C19.8 23.125 19.05 24.95 19.05 27.15ZM51 48V21L33 7.5L15 21V48H51Z" fill="white"/>
</svg>
