<svg width="24" height="24" viewBox="0 0 24 24" fill="none" xmlns="http://www.w3.org/2000/svg">
<g clip-path="url(#clip0_3816_4269)">
<rect width="24" height="24" rx="12" fill="#007AFF"/>
<path d="M12.25 18.4688L11.3438 17.6563C10.2917 16.7083 9.42188 15.8906 8.73438 15.2031C8.04688 14.5156 7.5 13.901 7.09375 13.3594C6.6875 12.8073 6.40104 12.3021 6.23438 11.8438C6.07812 11.3854 6 10.9167 6 10.4375C6 9.45833 6.32813 8.64063 6.98438 7.98438C7.64063 7.32813 8.45833 7 9.4375 7C9.97917 7 10.4948 7.11458 10.9844 7.34375C11.474 7.57292 11.8958 7.89583 12.25 8.3125C12.6042 7.89583 13.026 7.57292 13.5156 7.34375C14.0052 7.11458 14.5208 7 15.0625 7C16.0417 7 16.8594 7.32813 17.5156 7.98438C18.1719 8.64063 18.5 9.45833 18.5 10.4375C18.5 10.9167 18.4167 11.3854 18.25 11.8438C18.0938 12.3021 17.8125 12.8073 17.4063 13.3594C17 13.901 16.4531 14.5156 15.7656 15.2031C15.0781 15.8906 14.2083 16.7083 13.1563 17.6563L12.25 18.4688ZM12.25 16.7813C13.25 15.8854 14.0729 15.1198 14.7188 14.4844C15.3646 13.8385 15.875 13.2813 16.25 12.8125C16.625 12.3333 16.8854 11.9115 17.0313 11.5469C17.1771 11.1719 17.25 10.8021 17.25 10.4375C17.25 9.8125 17.0417 9.29167 16.625 8.875C16.2083 8.45833 15.6875 8.25 15.0625 8.25C14.5729 8.25 14.1198 8.39063 13.7031 8.67188C13.2865 8.94271 13 9.29167 12.8438 9.71875H11.6563C11.5 9.29167 11.2135 8.94271 10.7969 8.67188C10.3802 8.39063 9.92708 8.25 9.4375 8.25C8.8125 8.25 8.29167 8.45833 7.875 8.875C7.45833 9.29167 7.25 9.8125 7.25 10.4375C7.25 10.8021 7.32292 11.1719 7.46875 11.5469C7.61458 11.9115 7.875 12.3333 8.25 12.8125C8.625 13.2813 9.13542 13.8385 9.78125 14.4844C10.4271 15.1198 11.25 15.8854 12.25 16.7813Z" fill="white"/>
</g>
<defs>
<clipPath id="clip0_3816_4269">
<rect width="24" height="24" rx="12" fill="white"/>
</clipPath>
</defs>
</svg>
