<svg width="56" height="62" viewBox="0 0 56 62" fill="none" xmlns="http://www.w3.org/2000/svg">
<path d="M4.87012 27.875V39.375C4.87012 48.862 4.87007 53.606 7.82007 56.553C10.7601 59.5 15.5101 59.5 25.0001 59.5H30.7501C40.2301 59.5 44.98 59.5 47.92 56.553C50.87 53.606 50.8701 48.862 50.8701 39.375V27.875" stroke="white" stroke-width="4" stroke-linecap="round" stroke-linejoin="round"/>
<path d="M2 22.125C2 19.975 1.99995 18.901 2.56995 18.1C2.94995 17.576 3.50002 17.14 4.15002 16.837C5.15002 16.375 6.49993 16.375 9.17993 16.375H46.5599C49.2399 16.375 50.59 16.375 51.59 16.837C52.24 17.14 52.7899 17.576 53.1699 18.1C53.7499 18.901 53.75 19.975 53.75 22.125C53.75 24.275 53.7499 25.35 53.1699 26.15C52.7899 26.675 52.24 27.11 51.59 27.413C50.59 27.875 49.2399 27.875 46.5599 27.875H9.17993C6.49993 27.875 5.15002 27.875 4.15002 27.413C3.50002 27.11 2.94995 26.675 2.56995 26.15C1.99995 25.35 2 24.275 2 22.125Z" stroke="white" stroke-width="4" stroke-linejoin="round"/>
<path d="M10.6201 7.13403C10.6201 4.29903 12.9201 2 15.7501 2H16.7802C22.9102 2 27.8701 6.96503 27.8701 13.09V16.375H19.8601C14.7601 16.375 10.6201 12.238 10.6201 7.13403Z" stroke="white" stroke-width="4" stroke-linejoin="round"/>
<path d="M45.1201 7.13403C45.1201 4.29903 42.8201 2 39.9901 2H38.9601C32.8301 2 27.8701 6.96503 27.8701 13.09V16.375H35.8801C40.9801 16.375 45.1201 12.238 45.1201 7.13403Z" stroke="white" stroke-width="4" stroke-linejoin="round"/>
<path d="M27.8701 27.875V59.5" stroke="white" stroke-width="4" stroke-linecap="round" stroke-linejoin="round"/>
</svg>
