<svg width="42" height="65" viewBox="0 0 42 65" fill="none" xmlns="http://www.w3.org/2000/svg">
<path d="M6 64.5L1.19995 60.9L9 50.475V34.5C9 32.95 9.13 31.263 9.38 29.438C9.63 27.613 10 25.925 10.5 24.375L6 26.85V37.5H0V23.4L13.2 15.9C14.45 15.2 15.54 14.663 16.47 14.288C17.39 13.913 18.2499 13.725 19.0499 13.725C20.2999 13.725 21.44 14.263 22.47 15.338C23.49 16.413 24.6799 18.1 26.0299 20.4C27.6299 23.1 29.08 25.125 30.38 26.475C31.68 27.825 33.08 28.85 34.58 29.55C35.13 29.15 35.6 28.875 36 28.725C36.4 28.575 36.8799 28.5 37.4299 28.5C38.6799 28.5 39.7499 28.95 40.6499 29.85C41.5499 30.75 42 31.8 42 33V64.5H39V33C39 32.6 38.8499 32.25 38.5499 31.95C38.2499 31.65 37.9 31.5 37.5 31.5C37.1 31.5 36.75 31.65 36.45 31.95C36.15 32.25 36 32.6 36 33V36.75H33V35.325C30.3 34.175 28.2 32.888 26.7 31.463C25.2 30.038 23.88 28.125 22.73 25.725C22.18 27.125 21.7399 28.838 21.4199 30.863C21.0899 32.888 20.98 34.8 21.08 36.6L27 45V64.5H21V49.5L15.6799 41.85L15 52.5L6 64.5ZM22.5 12C20.85 12 19.44 11.413 18.27 10.238C17.09 9.06304 16.5 7.65 16.5 6C16.5 4.35 17.09 2.938 18.27 1.763C19.44 0.588001 20.85 0 22.5 0C24.15 0 25.57 0.588001 26.74 1.763C27.92 2.938 28.5 4.35 28.5 6C28.5 7.65 27.92 9.06304 26.74 10.238C25.57 11.413 24.15 12 22.5 12Z" fill="white"/>
</svg>
