<svg width="93" height="92" viewBox="0 0 93 92" fill="none" xmlns="http://www.w3.org/2000/svg">
<g filter="url(#filter0_d_42_213)">
<path d="M67.859 8.80615H24.3463C15.7637 8.80615 8.80615 15.7638 8.80615 24.3464V66.8231C8.80615 75.4057 15.7637 82.3633 24.3463 82.3633H67.859C76.4417 82.3633 83.3992 75.4057 83.3992 66.8231V24.3464C83.3992 15.7638 76.4417 8.80615 67.859 8.80615Z" fill="url(#paint0_linear_42_213)"/>
<path d="M39.4361 63.9182L36.769 61.9182L41.1021 56.1262V47.2512C41.1021 46.3902 41.1721 45.4532 41.3111 44.4392C41.4491 43.4252 41.6581 42.4882 41.9361 41.6262L39.4361 43.0012V48.9182H36.1021V41.0852L43.4361 36.9182C44.1301 36.5292 44.734 36.2312 45.248 36.0222C45.762 35.8142 46.2411 35.7102 46.6861 35.7102C47.3801 35.7102 48.0121 36.0082 48.5811 36.6062C49.1511 37.2032 49.8111 38.1402 50.5611 39.4182C51.4491 40.9182 52.2551 42.0432 52.9771 42.7932C53.6991 43.5432 54.4771 44.1132 55.3111 44.5012C55.6161 44.2792 55.8801 44.1262 56.1021 44.0432C56.3241 43.9602 56.588 43.9182 56.894 43.9182C57.588 43.9182 58.1861 44.1682 58.6861 44.6682C59.1861 45.1682 59.4361 45.7512 59.4361 46.4182V63.9182H57.769V46.4182C57.769 46.1962 57.686 46.0012 57.519 45.8352C57.352 45.6682 57.1581 45.5852 56.9361 45.5852C56.7131 45.5852 56.5191 45.6682 56.3521 45.8352C56.1861 46.0012 56.1021 46.1962 56.1021 46.4182V48.5012H54.4361V47.7102C52.9361 47.0712 51.7691 46.3562 50.9361 45.5642C50.1021 44.7722 49.3661 43.7102 48.7271 42.3762C48.4221 43.1542 48.179 44.1062 47.998 45.2312C47.818 46.3562 47.7551 47.4182 47.8111 48.4182L51.1021 53.0852V63.9182H47.769V55.5852L44.8111 51.3352L44.4361 57.2512L39.4361 63.9182ZM48.6021 34.7512C47.6861 34.7512 46.901 34.4252 46.248 33.7722C45.595 33.1202 45.269 32.3352 45.269 31.4182C45.269 30.5012 45.595 29.7172 46.248 29.0642C46.901 28.4112 47.6861 28.0852 48.6021 28.0852C49.5191 28.0852 50.3041 28.4112 50.9561 29.0642C51.6091 29.7172 51.9361 30.5012 51.9361 31.4182C51.9361 32.3352 51.6091 33.1202 50.9561 33.7722C50.3041 34.4252 49.5191 34.7512 48.6021 34.7512Z" fill="white"/>
</g>
<defs>
<filter id="filter0_d_42_213" x="1.23978e-05" y="1.23978e-05" width="92.2053" height="91.1694" filterUnits="userSpaceOnUse" color-interpolation-filters="sRGB">
<feFlood flood-opacity="0" result="BackgroundImageFix"/>
<feColorMatrix in="SourceAlpha" type="matrix" values="0 0 0 0 0 0 0 0 0 0 0 0 0 0 0 0 0 0 127 0" result="hardAlpha"/>
<feOffset/>
<feGaussianBlur stdDeviation="4.40307"/>
<feComposite in2="hardAlpha" operator="out"/>
<feColorMatrix type="matrix" values="0 0 0 0 0 0 0 0 0 0 0 0 0 0 0 0 0 0 0.05 0"/>
<feBlend mode="normal" in2="BackgroundImageFix" result="effect1_dropShadow_42_213"/>
<feBlend mode="normal" in="SourceGraphic" in2="effect1_dropShadow_42_213" result="shape"/>
</filter>
<linearGradient id="paint0_linear_42_213" x1="8.80615" y1="76.1472" x2="83.3992" y2="15.0222" gradientUnits="userSpaceOnUse">
<stop stop-color="#CFCFCF"/>
<stop offset="1" stop-color="#878787"/>
</linearGradient>
</defs>
</svg>
