<svg width="93" height="92" viewBox="0 0 93 92" fill="none" xmlns="http://www.w3.org/2000/svg">
<g filter="url(#filter0_d_42_215)">
<path d="M67.859 8.80615H24.3463C15.7637 8.80615 8.80615 15.7638 8.80615 24.3464V66.8231C8.80615 75.4057 15.7637 82.3633 24.3463 82.3633H67.859C76.4416 82.3633 83.3993 75.4057 83.3993 66.8231V24.3464C83.3993 15.7638 76.4416 8.80615 67.859 8.80615Z" fill="#B2B2B2"/>
<path d="M35.0461 44.2042V49.7292C35.0461 54.2872 35.0462 56.5662 36.4662 57.9832C37.8862 59.3992 40.1662 59.3992 44.7162 59.3992H47.4862C52.0462 59.3992 54.3162 59.3992 55.7362 57.9832C57.1562 56.5662 57.1561 54.2872 57.1561 49.7292V44.2042" stroke="white" stroke-width="2.07203" stroke-linecap="round" stroke-linejoin="round"/>
<path d="M33.6663 41.4411C33.6663 40.4081 33.6663 39.8921 33.9463 39.5071C34.1263 39.2551 34.3863 39.0461 34.7063 38.9001C35.1863 38.6781 35.8363 38.6781 37.1263 38.6781H55.0763C56.3763 38.6781 57.0163 38.6781 57.4963 38.9001C57.8163 39.0461 58.0762 39.2551 58.2562 39.5071C58.5362 39.8921 58.5363 40.4081 58.5363 41.4411C58.5363 42.4741 58.5362 42.9901 58.2562 43.3751C58.0762 43.6271 57.8163 43.8361 57.4963 43.9811C57.0163 44.2031 56.3763 44.2031 55.0763 44.2031H37.1263C35.8363 44.2031 35.1863 44.2031 34.7063 43.9811C34.3863 43.8361 34.1263 43.6271 33.9463 43.3751C33.6663 42.9901 33.6663 42.4741 33.6663 41.4411Z" stroke="white" stroke-width="2.07203" stroke-linejoin="round"/>
<path d="M37.8162 34.2381C37.8162 32.8761 38.9161 31.7711 40.2761 31.7711H40.7761C43.7161 31.7711 46.1062 34.1571 46.1062 37.0991V38.6781H42.2561C39.8061 38.6781 37.8162 36.6901 37.8162 34.2381Z" stroke="white" stroke-width="2.07203" stroke-linejoin="round"/>
<path d="M54.3861 34.2381C54.3861 32.8761 53.2861 31.7711 51.9261 31.7711H51.4261C48.4861 31.7711 46.1062 34.1571 46.1062 37.0991V38.6781H49.9462C52.4062 38.6781 54.3861 36.6901 54.3861 34.2381Z" stroke="white" stroke-width="2.07203" stroke-linejoin="round"/>
<path d="M46.1062 44.2042V59.3992" stroke="white" stroke-width="2.07203" stroke-linecap="round" stroke-linejoin="round"/>
</g>
<defs>
<filter id="filter0_d_42_215" x="1.23978e-05" y="1.23978e-05" width="92.2053" height="91.1694" filterUnits="userSpaceOnUse" color-interpolation-filters="sRGB">
<feFlood flood-opacity="0" result="BackgroundImageFix"/>
<feColorMatrix in="SourceAlpha" type="matrix" values="0 0 0 0 0 0 0 0 0 0 0 0 0 0 0 0 0 0 127 0" result="hardAlpha"/>
<feOffset/>
<feGaussianBlur stdDeviation="4.40307"/>
<feComposite in2="hardAlpha" operator="out"/>
<feColorMatrix type="matrix" values="0 0 0 0 0 0 0 0 0 0 0 0 0 0 0 0 0 0 0.05 0"/>
<feBlend mode="normal" in2="BackgroundImageFix" result="effect1_dropShadow_42_215"/>
<feBlend mode="normal" in="SourceGraphic" in2="effect1_dropShadow_42_215" result="shape"/>
</filter>
</defs>
</svg>
