<svg width="93" height="92" viewBox="0 0 93 92" fill="none" xmlns="http://www.w3.org/2000/svg">
<g filter="url(#filter0_d_42_212)">
<path d="M67.859 8.80615H24.3463C15.7637 8.80615 8.80615 15.7638 8.80615 24.3464V66.8231C8.80615 75.4057 15.7637 82.3633 24.3463 82.3633H67.859C76.4417 82.3633 83.3992 75.4057 83.3992 66.8231V24.3464C83.3992 15.7638 76.4417 8.80615 67.859 8.80615Z" fill="url(#paint0_linear_42_212)"/>
<path d="M46.1026 60.5852L43.686 58.4182C40.8804 55.8902 38.561 53.7102 36.7276 51.8772C34.8943 50.0432 33.436 48.4042 32.3526 46.9602C31.2693 45.4882 30.5054 44.1402 30.061 42.9182C29.6443 41.6962 29.436 40.4462 29.436 39.1682C29.436 36.5572 30.311 34.3772 32.061 32.6272C33.811 30.8772 35.9915 30.0022 38.6026 30.0022C40.0471 30.0022 41.4221 30.3072 42.7276 30.9182C44.0332 31.5292 45.1582 32.3902 46.1026 33.5022C47.0471 32.3902 48.1721 31.5292 49.4776 30.9182C50.7832 30.3072 52.1582 30.0022 53.6026 30.0022C56.2137 30.0022 58.3943 30.8772 60.1443 32.6272C61.8943 34.3772 62.7693 36.5572 62.7693 39.1682C62.7693 40.4462 62.5471 41.6962 62.1026 42.9182C61.686 44.1402 60.936 45.4882 59.8526 46.9602C58.7693 48.4042 57.311 50.0432 55.4776 51.8772C53.6443 53.7102 51.3249 55.8902 48.5193 58.4182L46.1026 60.5852ZM46.1026 56.0852C48.7693 53.6962 50.9637 51.6542 52.686 49.9602C54.4082 48.2382 55.7693 46.7522 56.7693 45.5022C57.7693 44.2242 58.4637 43.0992 58.8526 42.1272C59.2415 41.1272 59.436 40.1402 59.436 39.1682C59.436 37.5022 58.8804 36.1132 57.7693 35.0022C56.6582 33.8902 55.2693 33.3352 53.6026 33.3352C52.2971 33.3352 51.0887 33.7102 49.9776 34.4602C48.8665 35.1822 48.1026 36.1132 47.686 37.2522H44.5193C44.1026 36.1132 43.3387 35.1822 42.2276 34.4602C41.1165 33.7102 39.9082 33.3352 38.6026 33.3352C36.936 33.3352 35.5471 33.8902 34.436 35.0022C33.3249 36.1132 32.7693 37.5022 32.7693 39.1682C32.7693 40.1402 32.9637 41.1272 33.3526 42.1272C33.7415 43.0992 34.436 44.2242 35.436 45.5022C36.436 46.7522 37.7971 48.2382 39.5193 49.9602C41.2415 51.6542 43.436 53.6962 46.1026 56.0852Z" fill="white"/>
</g>
<defs>
<filter id="filter0_d_42_212" x="1.23978e-05" y="1.23978e-05" width="92.2053" height="91.1694" filterUnits="userSpaceOnUse" color-interpolation-filters="sRGB">
<feFlood flood-opacity="0" result="BackgroundImageFix"/>
<feColorMatrix in="SourceAlpha" type="matrix" values="0 0 0 0 0 0 0 0 0 0 0 0 0 0 0 0 0 0 127 0" result="hardAlpha"/>
<feOffset/>
<feGaussianBlur stdDeviation="4.40307"/>
<feComposite in2="hardAlpha" operator="out"/>
<feColorMatrix type="matrix" values="0 0 0 0 0 0 0 0 0 0 0 0 0 0 0 0 0 0 0.05 0"/>
<feBlend mode="normal" in2="BackgroundImageFix" result="effect1_dropShadow_42_212"/>
<feBlend mode="normal" in="SourceGraphic" in2="effect1_dropShadow_42_212" result="shape"/>
</filter>
<linearGradient id="paint0_linear_42_212" x1="8.80615" y1="76.1472" x2="83.3997" y2="15.0222" gradientUnits="userSpaceOnUse">
<stop stop-color="#F9116E" stop-opacity="0.4"/>
<stop offset="1" stop-color="#F10DF5" stop-opacity="0.25"/>
</linearGradient>
</defs>
</svg>
