<svg width="60" height="56" viewBox="0 0 60 56" fill="none" xmlns="http://www.w3.org/2000/svg">
<path d="M30 55.05L25.65 51.15C20.6 46.6 16.425 42.675 13.125 39.375C9.825 36.075 7.2 33.125 5.25 30.525C3.3 27.875 1.925 25.45 1.125 23.25C0.375 21.05 0 18.8 0 16.5C0 11.8 1.57501 7.87501 4.72501 4.72501C7.87501 1.57501 11.8 0 16.5 0C19.1 0 21.575 0.549994 23.925 1.64999C26.275 2.74999 28.3 4.3 30 6.3C31.7 4.3 33.725 2.74999 36.075 1.64999C38.425 0.549994 40.9 0 43.5 0C48.2 0 52.125 1.57501 55.275 4.72501C58.425 7.87501 60 11.8 60 16.5C60 18.8 59.6 21.05 58.8 23.25C58.05 25.45 56.7 27.875 54.75 30.525C52.8 33.125 50.175 36.075 46.875 39.375C43.575 42.675 39.4 46.6 34.35 51.15L30 55.05ZM30 46.95C34.8 42.65 38.75 38.975 41.85 35.925C44.95 32.825 47.4 30.15 49.2 27.9C51 25.6 52.25 23.575 52.95 21.825C53.65 20.025 54 18.25 54 16.5C54 13.5 53 11 51 9C49 7 46.5 6 43.5 6C41.15 6 38.975 6.67499 36.975 8.02499C34.975 9.32499 33.6 11 32.85 13.05H27.15C26.4 11 25.025 9.32499 23.025 8.02499C21.025 6.67499 18.85 6 16.5 6C13.5 6 11 7 9 9C7 11 6 13.5 6 16.5C6 18.25 6.34999 20.025 7.04999 21.825C7.74999 23.575 8.99999 25.6 10.8 27.9C12.6 30.15 15.05 32.825 18.15 35.925C21.25 38.975 25.2 42.65 30 46.95Z" fill="white"/>
</svg>
