<svg width="25" height="24" viewBox="0 0 25 24" fill="none" xmlns="http://www.w3.org/2000/svg">
<path d="M4.45215 11V15C4.45215 18.2998 4.45215 19.9497 5.47727 20.9749C6.5024 22 8.15232 22 11.4521 22H13.4521C16.752 22 18.4019 22 19.427 20.9749C20.4521 19.9497 20.4521 18.2998 20.4521 15V11" stroke="white" stroke-width="1.5" stroke-linecap="round" stroke-linejoin="round"/>
<path d="M3.45215 9C3.45215 8.25231 3.45215 7.87846 3.65311 7.6C3.78476 7.41758 3.97412 7.26609 4.20215 7.16077C4.55022 7 5.01753 7 5.95215 7H18.9521C19.8868 7 20.3541 7 20.7021 7.16077C20.9302 7.26609 21.1195 7.41758 21.2512 7.6C21.4521 7.87846 21.4521 8.25231 21.4521 9C21.4521 9.74769 21.4521 10.1215 21.2512 10.4C21.1195 10.5824 20.9302 10.7339 20.7021 10.8392C20.3541 11 19.8868 11 18.9521 11H5.95215C5.01753 11 4.55022 11 4.20215 10.8392C3.97412 10.7339 3.78476 10.5824 3.65311 10.4C3.45215 10.1215 3.45215 9.74769 3.45215 9Z" stroke="white" stroke-width="1.5" stroke-linejoin="round"/>
<path d="M6.45215 3.78571C6.45215 2.79949 7.25164 2 8.23786 2H8.59501C10.7252 2 12.4521 3.7269 12.4521 5.85714V7H9.66643C7.89123 7 6.45215 5.56091 6.45215 3.78571Z" stroke="white" stroke-width="1.5" stroke-linejoin="round"/>
<path d="M18.4521 3.78571C18.4521 2.79949 17.6527 2 16.6664 2H16.3093C14.1791 2 12.4521 3.7269 12.4521 5.85714V7H15.2379C17.0131 7 18.4521 5.56091 18.4521 3.78571Z" stroke="white" stroke-width="1.5" stroke-linejoin="round"/>
<path d="M12.4521 11L12.4521 22" stroke="white" stroke-width="1.5" stroke-linecap="round" stroke-linejoin="round"/>
</svg>
