<svg width="24" height="24" viewBox="0 0 24 24" fill="none" xmlns="http://www.w3.org/2000/svg">
<path d="M5.5 19.5H9.25V14C9.25 13.7875 9.32192 13.6093 9.46575 13.4655C9.60942 13.3218 9.7875 13.25 10 13.25H14C14.2125 13.25 14.3907 13.3218 14.5345 13.4655C14.6782 13.6093 14.75 13.7875 14.75 14V19.5H18.5V9.75L12 4.875L5.5 9.75V19.5ZM4 19.5V9.75C4 9.5125 4.05317 9.2875 4.1595 9.075C4.26567 8.8625 4.4125 8.6875 4.6 8.55L11.1 3.675C11.3613 3.475 11.66 3.375 11.996 3.375C12.332 3.375 12.6333 3.475 12.9 3.675L19.4 8.55C19.5875 8.6875 19.7344 8.8625 19.8408 9.075C19.9469 9.2875 20 9.5125 20 9.75V19.5C20 19.9125 19.8532 20.2656 19.5595 20.5593C19.2657 20.8531 18.9125 21 18.5 21H14C13.7875 21 13.6094 20.9281 13.4658 20.7843C13.3219 20.6406 13.25 20.4625 13.25 20.25V14.75H10.75V20.25C10.75 20.4625 10.6782 20.6406 10.5345 20.7843C10.3907 20.9281 10.2125 21 10 21H5.5C5.0875 21 4.73442 20.8531 4.44075 20.5593C4.14692 20.2656 4 19.9125 4 19.5Z" fill="#330065"/>
</svg>
